<svg xmlns="http://www.w3.org/2000/svg" width="202.451" height="48" viewBox="0 0 202.451 48">
  <path d="M39.557 18.177a7.889 7.889 0 0 0-7.88-7.88H26.73a4.791 4.791 0 0 0-4.787 4.787v17.832a.672.672 0 0 1-.672.671h-4.947a3.769 3.769 0 0 1-3.765-3.765 3.769 3.769 0 0 1 3.765-3.765h4.317v-4.116h-4.317a7.889 7.889 0 0 0-7.88 7.88 7.889 7.889 0 0 0 7.88 7.88h4.947a4.791 4.791 0 0 0 4.787-4.787V15.082a.673.673 0 0 1 .672-.672h4.947a3.77 3.77 0 0 1 3.765 3.765 3.771 3.771 0 0 1-3.765 3.765H27.36v4.116h4.317a7.889 7.889 0 0 0 7.88-7.879z" fill="#0e9f95"/>
  <path d="M24 0A24.027 24.027 0 0 0 0 24a24.027 24.027 0 0 0 24 24 24.027 24.027 0 0 0 24-24A24.027 24.027 0 0 0 24 0zm0 44.035A20.058 20.058 0 0 1 3.966 24 20.057 20.057 0 0 1 24 3.966 20.057 20.057 0 0 1 44.035 24 20.058 20.058 0 0 1 24 44.035z" fill="#0e9f95"/>
  <g>
    <path d="M76.741 23.541a12.97 12.97 0 0 1-.879 4.844 11.133 11.133 0 0 1-2.472 3.8 11.065 11.065 0 0 1-3.832 2.472 13.463 13.463 0 0 1-4.961.879h-9.158v-23.99h9.158a13.355 13.355 0 0 1 4.961.888 11.221 11.221 0 0 1 3.832 2.472 11.037 11.037 0 0 1 2.472 3.792 12.968 12.968 0 0 1 .879 4.843zm-4.562 0a11.01 11.01 0 0 0-.531-3.542 7.525 7.525 0 0 0-1.51-2.655 6.522 6.522 0 0 0-2.381-1.667 8.192 8.192 0 0 0-3.161-.581h-4.662v16.889h4.662a8.182 8.182 0 0 0 3.161-.581 6.511 6.511 0 0 0 2.381-1.667 7.512 7.512 0 0 0 1.51-2.655 11.007 11.007 0 0 0 .531-3.541zm21.867-11.995v3.55H83.411v6.653h8.378v3.435h-8.378v6.786h10.635v3.567H78.915v-23.99zm1.51 0h3.6a1.508 1.508 0 0 1 .946.282 1.735 1.735 0 0 1 .547.73l5.641 14.633q.282.714.539 1.568t.489 1.8a20.6 20.6 0 0 1 .946-3.368l5.624-14.633a1.731 1.731 0 0 1 .531-.7 1.437 1.437 0 0 1 .946-.315h3.6l-9.689 23.99h-4.031z" fill="#fff"/>
    <path d="M135.838 13.685a8.025 8.025 0 0 0-2.9-1.576 13.71 13.71 0 0 0-4.164-.564h-7.814v23.99h4.463V27.09h3.351a12.927 12.927 0 0 0 4.081-.581 8.093 8.093 0 0 0 2.9-1.626 6.624 6.624 0 0 0 1.742-2.5 8.522 8.522 0 0 0 .58-3.193 8.455 8.455 0 0 0-.547-3.086 6.171 6.171 0 0 0-1.692-2.419zm-2.522 7.342a3.615 3.615 0 0 1-.9 1.394 3.982 3.982 0 0 1-1.51.879 6.754 6.754 0 0 1-2.14.306h-3.351v-8.61h3.351a7.071 7.071 0 0 1 2.14.291 3.982 3.982 0 0 1 1.51.837 3.452 3.452 0 0 1 .9 1.327 4.846 4.846 0 0 1 .3 1.743 5.336 5.336 0 0 1-.3 1.833zm14.385 5.932l5.044 7.681a2.01 2.01 0 0 0 .688.664 1.955 1.955 0 0 0 .987.232h4.015l-6.006-8.86a4.429 4.429 0 0 0-1.46-1.377 8.678 8.678 0 0 0 2.248-1.062 6.923 6.923 0 0 0 1.659-1.542 6.629 6.629 0 0 0 1.029-1.958 7.257 7.257 0 0 0 .357-2.29 7.278 7.278 0 0 0-.523-2.8 5.485 5.485 0 0 0-1.643-2.182 8.028 8.028 0 0 0-2.87-1.418 15.285 15.285 0 0 0-4.206-.506h-7.317v23.99h4.463v-9.374h1.908a2.183 2.183 0 0 1 1 .182 1.771 1.771 0 0 1 .627.62zm-.746-4h-2.787v-7.963h2.854a5.753 5.753 0 0 1 3.675.979 3.408 3.408 0 0 1 1.2 2.8 4.561 4.561 0 0 1-.3 1.676 3.5 3.5 0 0 1-.9 1.319 4.251 4.251 0 0 1-1.543.871 6.9 6.9 0 0 1-2.2.318zm55.496 12.577l-7.947-12.526 7.731-11.464h-4.281a1.08 1.08 0 0 0-.946.614l-4.994 7.88c-.089.145-.166.285-.233.423s-.127.279-.182.423l-5.458-8.81a1.127 1.127 0 0 0-.373-.406 1.371 1.371 0 0 0-.672-.124h-4.446l7.649 11.647-7.98 12.343h4.181a.951.951 0 0 0 .663-.24 2.652 2.652 0 0 0 .448-.523l5.325-8.495c.056-.1.111-.207.166-.323a3.276 3.276 0 0 0 .15-.374l5.558 9.191a2.2 2.2 0 0 0 .456.531 1.076 1.076 0 0 0 .722.232z" fill="#0e9f95"/>
    <path d="M170.007 15.194a8.535 8.535 0 0 1 8.526 8.525 8.535 8.535 0 0 1-8.526 8.525 8.535 8.535 0 0 1-8.525-8.525 8.535 8.535 0 0 1 8.525-8.525m0-3.914a12.439 12.439 0 0 0-12.439 12.439 12.439 12.439 0 0 0 12.439 12.437 12.439 12.439 0 0 0 12.435-12.437 12.439 12.439 0 0 0-12.439-12.439z" fill="#0e9f95"/>
  </g>
</svg>
